# xmcd
#
# Track frame offsets: 
#        150
#        13598
#        36907
#        52082
#        66919
#        88641
#        102424
#        116656
#        134850
#        151210
#        166376
#        179803
#        194827
#        215057
#        231577
#        245879
#
# Disc length: 3645 seconds
#
# Revision: 98
# Processed by: cddbd v1.5.2PL0 Copyright (c) Steve Scherf et al.
# Submitted via: ExactAudioCopyFreeDBPlugin 1.0
#
DISCID=040e3b10
DTITLE=Eric Clapton - From The Cradle
DYEAR=1994
DGENRE=Blues
TTITLE0=Blues Before Sunrise
TTITLE1=Third Degree
TTITLE2=Reconsider Baby
TTITLE3=Hoochie Coochie Man
TTITLE4=Five Long Years
TTITLE5=I'm Tore Down
TTITLE6=How Long Blues
TTITLE7=Goin' Away Baby
TTITLE8=Blues Leave Me Alone
TTITLE9=Sinner's Prayer
TTITLE10=Motherless Child
TTITLE11=It Hurts Me Too
TTITLE12=Someday After A While
TTITLE13=Standin' Round Crying
TTITLE14=Driftin'
TTITLE15=Groaning The Blues
EXTD=This is a live recording with no overdubs or edits except for dob
EXTD=ro overdub on "How Long Blues" and drum overdub on "Motherless Ch
EXTD=ild"
EXTT0=
EXTT1=
EXTT2=
EXTT3=
EXTT4=
EXTT5=
EXTT6=
EXTT7=
EXTT8=
EXTT9=
EXTT10=
EXTT11=
EXTT12=
EXTT13=
EXTT14=
EXTT15=
PLAYORDER=
